<svg xmlns="http://www.w3.org/2000/svg" width="1000" height="240" viewBox="0 0 1000 240" role="img" aria-labelledby="title desc">
  <title id="title">Edgebase</title>
  <desc id="desc">Edgebase logo with a blue geometric E mark and wordmark.</desc>
  <defs>
    <linearGradient id="edgebase-blue" x1="0" y1="0" x2="1" y2="1">
      <stop offset="0" stop-color="#2f6bff"/>
      <stop offset="1" stop-color="#1237b7"/>
    </linearGradient>
    <linearGradient id="edgebase-navy" x1="0" y1="0" x2="1" y2="1">
      <stop offset="0" stop-color="#14224c"/>
      <stop offset="1" stop-color="#060b1f"/>
    </linearGradient>
  </defs>
  <rect width="1000" height="240" fill="none"/>
  <g transform="translate(62 41)">
    <path d="M36 48 102 10v26L36 74Z" fill="url(#edgebase-blue)"/>
    <path d="M36 95 126 43v27L36 122Z" fill="url(#edgebase-blue)"/>
    <path d="M36 48v74l66 38v-27L58 108V61Z" fill="url(#edgebase-navy)"/>
    <path d="M58 108 126 70v27l-46 27Z" fill="#0e1b44"/>
    <path d="M36 122 102 160l46-27-22-13-24 14-44-26Z" fill="#102053"/>
    <path d="M36 48 14 61v74l22-13Z" fill="#09122e"/>
  </g>
  <text x="232" y="147" fill="#081238" font-family="Inter, ui-sans-serif, system-ui, -apple-system, BlinkMacSystemFont, Segoe UI, sans-serif" font-size="88" font-weight="750" letter-spacing="0">Edgebase</text>
</svg>
